<svg width="101" height="100" viewBox="0 0 101 100" fill="none" xmlns="http://www.w3.org/2000/svg">
<path d="M26.75 72.5H77.8965C79.6719 72.5 81.3897 71.8702 82.7443 70.7227C84.099 69.5752 85.0026 67.9843 85.2945 66.233L92.9998 20H15.5L26.75 72.5Z" fill="#B0C7FF"/>
<path d="M38.806 54.5952L31.393 20H15.5L26.75 72.5H77.896C79.6714 72.5 81.3892 71.8702 82.7439 70.7227C84.0985 69.5752 85.0022 67.9843 85.2941 66.233L85.9163 62.5002H48.5841C46.2958 62.5002 44.0768 61.7153 42.2972 60.2767C40.5177 58.8381 39.2854 56.8327 38.806 54.5952Z" fill="#7398F5"/>
<path d="M77.9999 84.9998H29.2499C28.6811 84.9999 28.1293 84.806 27.6857 84.4501C27.242 84.0941 26.9331 83.5975 26.8098 83.0423L12.68 19.458C12.5589 18.9013 12.2504 18.4031 11.806 18.0467C11.3615 17.6903 10.8082 17.4973 10.2385 17.5H2.99987C2.66953 17.5032 2.34184 17.4409 2.03572 17.3167C1.72961 17.1925 1.45114 17.0089 1.21642 16.7764C0.981699 16.544 0.795374 16.2673 0.668215 15.9624C0.541056 15.6575 0.475586 15.3304 0.475586 15.0001C0.475586 14.6697 0.541056 14.3426 0.668215 14.0378C0.795374 13.7329 0.981699 13.4562 1.21642 13.2237C1.45114 12.9913 1.72961 12.8076 2.03572 12.6834C2.34184 12.5592 2.66953 12.4969 2.99987 12.5001H10.2388C11.9473 12.492 13.6067 13.0708 14.9395 14.1397C16.2723 15.2087 17.1976 16.7029 17.5607 18.3724L31.2557 79.9999H77.9999C78.3302 79.9967 78.6579 80.059 78.964 80.1832C79.2701 80.3074 79.5486 80.491 79.7833 80.7235C80.018 80.9559 80.2044 81.2326 80.3315 81.5375C80.4587 81.8424 80.5242 82.1695 80.5242 82.4998C80.5242 82.8302 80.4587 83.1573 80.3315 83.4622C80.2044 83.7671 80.018 84.0437 79.7833 84.2762C79.5486 84.5087 79.2701 84.6923 78.964 84.8165C78.6579 84.9407 78.3302 85.003 77.9999 84.9998Z" fill="#5982E7"/>
<path d="M29.2498 100C34.7727 100 39.2499 95.523 39.2499 90.0001C39.2499 84.4772 34.7727 80 29.2498 80C23.7269 80 19.2498 84.4772 19.2498 90.0001C19.2498 95.523 23.7269 100 29.2498 100Z" fill="#2D4A60"/>
<path d="M29.2498 94.3752C31.6661 94.3752 33.6249 92.4164 33.6249 90.0001C33.6249 87.5838 31.6661 85.625 29.2498 85.625C26.8335 85.625 24.8748 87.5838 24.8748 90.0001C24.8748 92.4164 26.8335 94.3752 29.2498 94.3752Z" fill="#D9E1E2"/>
<path d="M77.9998 100C83.5227 100 87.9999 95.523 87.9999 90.0001C87.9999 84.4772 83.5227 80 77.9998 80C72.4769 80 67.9998 84.4772 67.9998 90.0001C67.9998 95.523 72.4769 100 77.9998 100Z" fill="#2D4A60"/>
<path d="M77.9998 94.3752C80.4161 94.3752 82.3749 92.4164 82.3749 90.0001C82.3749 87.5838 80.4161 85.625 77.9998 85.625C75.5836 85.625 73.6248 87.5838 73.6248 90.0001C73.6248 92.4164 75.5836 94.3752 77.9998 94.3752Z" fill="#D9E1E2"/>
<path d="M80.4999 39.9998C91.5456 39.9998 100.5 31.0456 100.5 19.9999C100.5 8.95427 91.5456 0 80.4999 0C69.4543 0 60.5 8.95427 60.5 19.9999C60.5 31.0456 69.4543 39.9998 80.4999 39.9998Z" fill="#00CF66"/>
<path d="M85.4998 35C81.8463 35.0024 78.262 34.0034 75.1365 32.1114C72.011 30.2194 69.4638 27.5069 67.7719 24.2687C66.0801 21.0305 65.3081 17.3905 65.5401 13.7444C65.772 10.0982 66.9989 6.58536 69.0875 3.58765C66.6844 5.25662 64.6769 7.43271 63.2068 9.96231C61.7366 12.4919 60.8395 15.3134 60.579 18.2276C60.3184 21.1417 60.7006 24.0776 61.6987 26.8279C62.6967 29.5782 64.2863 32.0759 66.3552 34.1448C68.424 36.2136 70.9218 37.8032 73.6721 38.8012C76.4224 39.7992 79.3583 40.1814 82.2724 39.9208C85.1866 39.6602 88.0081 38.7632 90.5376 37.293C93.0672 35.8228 95.2433 33.8153 96.9123 31.4122C93.5663 33.7507 89.582 35.0033 85.4998 35Z" fill="#00B157"/>
<path d="M89.2499 17.4996H83V11.2498C82.9937 10.591 82.7275 9.96127 82.2593 9.49764C81.7912 9.03402 81.1589 8.77393 80.5001 8.77393C79.8412 8.77393 79.209 9.03402 78.7408 9.49764C78.2727 9.96127 78.0065 10.591 78.0001 11.2498V17.4999H71.75C71.0912 17.5063 70.4615 17.7725 69.9979 18.2406C69.5343 18.7087 69.2742 19.341 69.2742 19.9998C69.2742 20.6587 69.5343 21.2909 69.9979 21.7591C70.4615 22.2272 71.0912 22.4934 71.75 22.4998H78.0001V28.7499C77.9969 29.0802 78.0592 29.4079 78.1834 29.714C78.3076 30.0201 78.4913 30.2986 78.7237 30.5333C78.9562 30.768 79.2329 30.9544 79.5378 31.0815C79.8427 31.2087 80.1697 31.2742 80.5001 31.2742C80.8304 31.2742 81.1575 31.2087 81.4624 31.0815C81.7673 30.9544 82.044 30.768 82.2764 30.5333C82.5089 30.2986 82.6925 30.0201 82.8167 29.714C82.9409 29.4079 83.0032 29.0802 83 28.7499V22.4998H89.2501C89.5805 22.503 89.9082 22.4407 90.2143 22.3165C90.5204 22.1923 90.7989 22.0087 91.0336 21.7762C91.2683 21.5437 91.4546 21.2671 91.5818 20.9622C91.7089 20.6573 91.7744 20.3302 91.7744 19.9998C91.7744 19.6695 91.7089 19.3424 91.5818 19.0375C91.4546 18.7326 91.2683 18.4559 91.0336 18.2235C90.7989 17.991 90.5204 17.8074 90.2143 17.6832C89.9082 17.559 89.5805 17.4967 89.2501 17.4999L89.2499 17.4996Z" fill="#EAEFF0"/>
</svg>
